<?xml version="1.0" encoding="UTF-8" standalone="no"?>
<!-- Generator: Adobe Illustrator 22.1.0, SVG Export Plug-In . SVG Version: 6.00 Build 0)  -->

<svg
   xmlns:dc="http://purl.org/dc/elements/1.1/"
   xmlns:cc="http://creativecommons.org/ns#"
   xmlns:rdf="http://www.w3.org/1999/02/22-rdf-syntax-ns#"
   xmlns:svg="http://www.w3.org/2000/svg"
   xmlns="http://www.w3.org/2000/svg"
   xmlns:xlink="http://www.w3.org/1999/xlink"
   xmlns:sodipodi="http://sodipodi.sourceforge.net/DTD/sodipodi-0.dtd"
   xmlns:inkscape="http://www.inkscape.org/namespaces/inkscape"
   version="1.1"
   id="Ebene_1"
   x="0px"
   y="0px"
   viewBox="0 0 291.20001 168.80001"
   xml:space="preserve"
   sodipodi:docname="UB_d_blau.svg"
   width="77.046669mm"
   height="44.661667mm"
   inkscape:version="0.92.2 (5c3e80d, 2017-08-06)"><metadata
     id="metadata4596"><rdf:RDF><cc:Work
         rdf:about=""><dc:format>image/svg+xml</dc:format><dc:type
           rdf:resource="http://purl.org/dc/dcmitype/StillImage" /><dc:title></dc:title></cc:Work></rdf:RDF></metadata><defs
     id="defs4594" /><sodipodi:namedview
     pagecolor="#ffffff"
     bordercolor="#666666"
     borderopacity="1"
     objecttolerance="10"
     gridtolerance="10"
     guidetolerance="10"
     inkscape:pageopacity="0"
     inkscape:pageshadow="2"
     inkscape:window-width="1920"
     inkscape:window-height="1178"
     id="namedview4592"
     showgrid="false"
     fit-margin-top="0"
     fit-margin-left="0"
     fit-margin-right="0"
     fit-margin-bottom="0"
     showborder="false"
     scale-x="0.5"
     units="mm"
     inkscape:zoom="1"
     inkscape:cx="141.64999"
     inkscape:cy="-33.822612"
     inkscape:window-x="-8"
     inkscape:window-y="-8"
     inkscape:window-maximized="1"
     inkscape:current-layer="Ebene_1" /><style
     type="text/css"
     id="style4551">
	.st0{clip-path:url(#SVGID_2_);fill:#003056;}
	.st1{fill:#003056;}
	.st2{clip-path:url(#SVGID_4_);fill:#003056;}
</style><g
     id="g4561"
     transform="translate(-156,-218.4)"><defs
       id="defs4554"><rect
         id="SVGID_1_"
         x="156"
         y="218.39999"
         width="291.20001"
         height="168.8" /></defs><clipPath
       id="SVGID_2_"><use
         xlink:href="#SVGID_1_"
         style="overflow:visible"
         id="use4556"
         x="0"
         y="0"
         width="100%"
         height="100%" /></clipPath><path
       class="st0"
       d="m 398.8,271.2 h 7.2 c 10.5,0 19,3.7 19,13.2 0,9.8 -8.5,13.6 -18,13.6 -3.6,0 -6.1,0 -8.2,-0.4 z m 0,-36.7 c 1.7,-0.4 4.3,-0.7 9,-0.7 9.6,0 15,3.7 15,10.8 0,6.9 -5.8,11.5 -17,11.5 h -6.9 v -21.6 z m -20.9,77.6 c 4.7,0.7 12.5,1.4 22.9,1.4 18.6,0 29.9,-3 36.7,-8.5 5.8,-4.6 9.7,-11.2 9.7,-19.8 0,-12.1 -7.9,-20.2 -18.6,-23 v -0.3 c 10.4,-4 15.2,-11.6 15.2,-19.8 0,-8.6 -4.6,-15 -11.1,-18.4 -6.8,-4 -14.7,-5.3 -27.6,-5.3 -10.7,0 -21.8,1 -27.3,2.1 v 91.6 z m -94.5,-93 v 52.1 c 0,29.7 13.7,42.8 37.3,42.8 24.4,0 38.9,-13.7 38.9,-42.5 v -52.4 h -21.1 v 53.6 c 0,16.6 -6.1,24.4 -17.2,24.4 -10.7,0 -16.9,-8.2 -16.9,-24.4 v -53.6 z"
       clip-path="url(#SVGID_2_)"
       id="path4559"
       inkscape:connector-curvature="0"
       style="fill:#003056" /></g><rect
     x="26.5"
     y="73.200035"
     class="st1"
     width="22"
     height="22"
     id="rect4563"
     style="fill:#003056" /><rect
     x="74.699997"
     y="73.200035"
     class="st1"
     width="22"
     height="22"
     id="rect4565"
     style="fill:#003056" /><rect
     x="2.3000031"
     y="49.099937"
     class="st1"
     width="22"
     height="22"
     id="rect4567"
     style="fill:#003056" /><rect
     x="2.3000031"
     y="0.80013341"
     class="st1"
     width="22"
     height="22"
     id="rect4569"
     style="fill:#003056" /><rect
     x="26.5"
     y="25.000084"
     class="st1"
     width="22"
     height="22"
     id="rect4571"
     style="fill:#003056" /><rect
     x="74.699997"
     y="25.000084"
     class="st1"
     width="22"
     height="22"
     id="rect4573"
     style="fill:#003056" /><rect
     x="50.600006"
     y="49.099937"
     class="st1"
     width="22"
     height="22"
     id="rect4575"
     style="fill:#003056" /><rect
     x="50.600006"
     y="0.80013341"
     class="st1"
     width="22"
     height="22"
     id="rect4577"
     style="fill:#003056" /><g
     id="g4589"
     transform="translate(-156,-218.4)"><defs
       id="defs4580"><rect
         id="SVGID_3_"
         x="156"
         y="218.39999"
         width="291.20001"
         height="168.8" /></defs><clipPath
       id="SVGID_4_"><use
         xlink:href="#SVGID_3_"
         style="overflow:visible"
         id="use4582"
         x="0"
         y="0"
         width="100%"
         height="100%" /></clipPath><path
       class="st2"
       d="m 437.4,387.2 h 6.3 l -1.5,-28.5 h -8.5 l -3,9.5 c -1,3.2 -1.9,6.9 -2.7,10.2 h -0.2 c -0.6,-3.3 -1.5,-6.9 -2.4,-10.2 l -2.8,-9.6 H 414 l -1.8,28.5 h 6 l 0.6,-10.8 c 0.2,-3.6 0.3,-8 0.5,-11.8 h 0.1 c 0.7,3.8 1.6,7.8 2.6,11.2 l 3,11 h 5 l 3.5,-11.1 c 1.1,-3.3 2.3,-7.4 3.2,-11 h 0.1 c 0,4.2 0.1,8.3 0.3,11.7 z m -46.5,0 h 6.4 v -28.5 h -6.4 z M 375.3,369.9 H 364.8 V 364 h 11.1 v -5.3 h -17.5 v 28.5 h 18.1 v -5.3 h -11.7 v -6.8 h 10.5 z m -56.1,-11.2 v 28.5 h 6.4 v -11.9 h 10.6 v 11.9 h 6.4 v -28.5 h -6.4 v 11 h -10.6 v -11 z M 286,387.2 v -8.6 c 0,-4.7 -0.1,-8.7 -0.3,-12.5 h 0.2 c 1.4,3.3 3.3,7 5,10.1 l 6.1,11 h 6.8 v -28.5 h -5.9 v 8.3 c 0,4.3 0.1,8.2 0.5,11.9 h -0.1 c -1.3,-3.2 -3,-6.8 -4.7,-9.8 l -5.9,-10.4 h -7.5 v 28.5 z m -39.2,0 v -8.6 c 0,-4.7 -0.1,-8.7 -0.3,-12.5 h 0.2 c 1.4,3.3 3.3,7 5,10.1 l 6.1,11 h 6.8 v -28.5 h -5.9 v 8.3 c 0,4.3 0.1,8.2 0.5,11.9 H 259 c -1.3,-3.2 -3,-6.8 -4.7,-9.8 l -5.9,-10.4 h -7.5 v 28.5 z m -36.1,-12.1 1.7,-6.1 c 0.4,-1.7 0.9,-3.8 1.3,-5.5 h 0.1 c 0.4,1.6 0.9,3.8 1.4,5.5 l 1.8,6.1 z m 7.3,4.8 2.2,7.3 h 6.9 l -8.9,-28.5 h -8.4 l -8.7,28.5 h 6.7 l 2,-7.3 z m -36,7.3 h 6.3 l -1.5,-28.5 h -8.5 l -3,9.5 c -1,3.2 -1.9,6.9 -2.7,10.2 h -0.2 c -0.6,-3.3 -1.5,-6.9 -2.4,-10.2 l -2.8,-9.6 h -8.6 l -1.8,28.5 h 6 l 0.5,-10.8 c 0.2,-3.6 0.3,-8 0.5,-11.8 h 0.1 c 0.7,3.8 1.6,7.8 2.6,11.2 l 3,11 h 5 l 3.5,-11.1 c 1.1,-3.3 2.3,-7.4 3.2,-11 h 0.1 c 0,4.2 0.1,8.3 0.3,11.7 z"
       clip-path="url(#SVGID_4_)"
       id="path4585"
       inkscape:connector-curvature="0"
       style="fill:#003056" /><path
       class="st2"
       d="m 434.1,349.6 h 3 v -4.4 l 1.1,-1.4 3.3,5.9 h 3.6 l -4.7,-7.8 4.5,-5.8 h -3.8 l -3.1,4.5 c -0.3,0.5 -0.6,1 -0.9,1.5 v 0 -6 h -3 z m -5.1,-8.3 h -5 v -2.8 h 5.3 V 336 h -8.4 v 13.6 h 8.6 v -2.5 H 424 v -3.2 h 5 z M 404.6,336 v 13.6 h 3.1 v -5.7 h 5.1 v 5.7 h 3.1 V 336 h -3.1 v 5.2 h -5.1 V 336 Z m -10.8,13.6 h 3.1 v -11 h 3.7 V 336 h -10.4 v 2.6 h 3.7 v 11 z m -13,-2.2 c -2.1,0 -3.3,-2 -3.3,-4.6 0,-2.5 1.2,-4.6 3.3,-4.6 2.1,0 3.3,2.1 3.3,4.5 0,2.7 -1.2,4.7 -3.3,4.7 z m -0.1,2.4 c 4,0 6.7,-2.7 6.7,-7.2 0,-3.8 -2.3,-6.9 -6.5,-6.9 -4,0 -6.6,3 -6.6,7.1 0,4 2.4,7 6.4,7 z m -13.9,-0.2 h 3.1 V 336 h -3.1 z m -12.8,0 h 8.5 V 347 h -5.4 V 336 H 354 Z m -11.5,-6 h 1 c 1.5,0 2.8,0.5 2.8,1.9 0,1.4 -1.2,2 -2.6,2 -0.5,0 -0.9,0 -1.2,-0.1 z m 0,-5.4 c 0.2,-0.1 0.6,-0.1 1.3,-0.1 1.4,0 2.2,0.5 2.2,1.6 0,1 -0.8,1.7 -2.5,1.7 h -1 z m -3.1,11.3 c 0.7,0.1 1.8,0.2 3.3,0.2 2.7,0 4.4,-0.4 5.3,-1.2 0.8,-0.7 1.4,-1.6 1.4,-2.9 0,-1.8 -1.1,-2.9 -2.7,-3.3 v 0 c 1.5,-0.6 2.2,-1.7 2.2,-2.9 0,-1.3 -0.7,-2.2 -1.6,-2.7 -1,-0.6 -2.1,-0.8 -4,-0.8 -1.6,0 -3.2,0.1 -4,0.3 v 13.3 z m -8.1,0.1 h 3.1 V 336 h -3.1 z m -11.6,-6 h 1 c 1.5,0 2.8,0.5 2.8,1.9 0,1.4 -1.2,2 -2.6,2 -0.5,0 -0.9,0 -1.2,-0.1 z m 0,-5.4 c 0.2,-0.1 0.6,-0.1 1.3,-0.1 1.4,0 2.2,0.5 2.2,1.6 0,1 -0.8,1.7 -2.5,1.7 h -1 z m -3,11.3 c 0.7,0.1 1.8,0.2 3.3,0.2 2.7,0 4.4,-0.4 5.3,-1.2 0.8,-0.7 1.4,-1.6 1.4,-2.9 0,-1.8 -1.1,-2.9 -2.7,-3.3 v 0 c 1.5,-0.6 2.2,-1.7 2.2,-2.9 0,-1.3 -0.7,-2.2 -1.6,-2.7 -1,-0.6 -2.1,-0.8 -4,-0.8 -1.6,0 -3.2,0.1 -4,0.3 v 13.3 z M 302.8,349 c 0.8,0.4 2.3,0.8 3.8,0.8 3.7,0 5.5,-1.9 5.5,-4.2 0,-1.9 -1.1,-3.2 -3.5,-4.1 -1.8,-0.7 -2.5,-1.1 -2.5,-1.9 0,-0.7 0.6,-1.3 2,-1.3 1.3,0 2.3,0.4 2.8,0.6 l 0.7,-2.5 c -0.8,-0.4 -1.9,-0.7 -3.5,-0.7 -3.2,0 -5.1,1.8 -5.1,4.1 0,2 1.5,3.2 3.7,4.1 1.6,0.6 2.3,1.1 2.3,1.9 0,0.9 -0.7,1.5 -2.2,1.5 -1.3,0 -2.6,-0.4 -3.4,-0.8 z m -10.1,0.6 h 3.1 v -11 h 3.7 V 336 H 289 v 2.6 h 3.7 z m -10.9,-14.4 c 0.8,0 1.3,-0.6 1.3,-1.3 0,-0.8 -0.6,-1.4 -1.3,-1.4 -0.8,0 -1.4,0.6 -1.4,1.4 0,0.7 0.6,1.3 1.4,1.3 z m -4.1,0 c 0.7,0 1.3,-0.6 1.3,-1.3 0,-0.8 -0.6,-1.4 -1.3,-1.4 -0.8,0 -1.4,0.6 -1.4,1.4 0,0.7 0.6,1.3 1.4,1.3 z m 0.3,8.6 0.8,-2.9 c 0.2,-0.8 0.4,-1.8 0.6,-2.6 v 0 c 0.2,0.8 0.4,1.8 0.7,2.6 l 0.8,2.9 z m 3.5,2.3 1,3.5 h 3.3 L 281.6,336 h -4 l -4.2,13.6 h 3.2 l 1,-3.5 z m -17.9,3.5 h 3.1 v -11 h 3.7 V 336 H 260 v 2.6 h 3.7 v 11 z m -10.8,0 h 3.1 V 336 h -3.1 z M 238.9,349 c 0.8,0.4 2.3,0.8 3.8,0.8 3.7,0 5.5,-1.9 5.5,-4.2 0,-1.9 -1.1,-3.2 -3.5,-4.1 -1.8,-0.7 -2.5,-1.1 -2.5,-1.9 0,-0.7 0.6,-1.3 2,-1.3 1.3,0 2.3,0.4 2.8,0.6 l 0.7,-2.5 c -0.8,-0.4 -1.9,-0.7 -3.5,-0.7 -3.2,0 -5.1,1.8 -5.1,4.1 0,2 1.5,3.2 3.7,4.1 1.6,0.6 2.3,1.1 2.3,1.9 0,0.9 -0.7,1.5 -2.2,1.5 -1.3,0 -2.6,-0.4 -3.4,-0.8 z m -10.8,-10.7 c 0.2,-0.1 0.6,-0.1 1.4,-0.1 1.4,0 2.3,0.6 2.3,1.9 0,1.2 -0.9,1.9 -2.4,1.9 h -1.2 v -3.7 z m -3,11.3 h 3 v -5.4 h 0.9 c 1.3,0 1.9,0.5 2.2,2.2 0.4,1.7 0.7,2.8 0.9,3.2 h 3.1 c -0.3,-0.5 -0.7,-2.3 -1.1,-3.9 -0.3,-1.3 -0.9,-2.1 -1.8,-2.5 v -0.1 c 1.2,-0.4 2.4,-1.6 2.4,-3.3 0,-1.2 -0.4,-2.2 -1.3,-2.8 -1,-0.8 -2.4,-1.1 -4.4,-1.1 -1.7,0 -3.1,0.1 -4.1,0.3 v 13.4 z m -5.1,-8.3 h -5 v -2.8 h 5.3 V 336 h -8.4 v 13.6 h 8.6 v -2.5 H 215 v -3.2 h 5 z m -16.5,8.3 4.5,-13.6 h -3.3 l -1.7,5.8 c -0.5,1.6 -0.9,3.2 -1.2,4.8 h -0.1 c -0.3,-1.7 -0.7,-3.2 -1.2,-4.9 l -1.7,-5.7 h -3.4 l 4.4,13.6 z m -15,0 h 3.1 V 336 h -3.1 z m -13.5,0 v -4.1 c 0,-2.2 0,-4.1 -0.1,-5.9 h 0.1 c 0.6,1.6 1.6,3.3 2.4,4.8 l 2.9,5.2 h 3.2 V 336 h -2.8 v 4 c 0,2.1 0.1,3.9 0.2,5.7 v 0 c -0.6,-1.5 -1.4,-3.2 -2.2,-4.7 l -2.8,-5 h -3.6 v 13.6 z M 156,336 v 7.6 c 0,4.3 2,6.2 5.4,6.2 3.5,0 5.7,-2 5.7,-6.2 V 336 H 164 v 7.8 c 0,2.4 -0.9,3.5 -2.5,3.5 -1.6,0 -2.5,-1.2 -2.5,-3.5 V 336 Z"
       clip-path="url(#SVGID_4_)"
       id="path4587"
       inkscape:connector-curvature="0"
       style="fill:#003056" /></g></svg>